<svg width="20" height="20" viewBox="0 0 20 20" fill="none" xmlns="http://www.w3.org/2000/svg">
<path d="M16.8686 20C16.541 20 16.2667 19.8895 16.0457 19.6686C15.8248 19.4476 15.7143 19.1733 15.7143 18.8457V14.2857C15.7143 13.959 15.8248 13.6852 16.0457 13.4643C16.2667 13.2433 16.541 13.1324 16.8686 13.1314H18.8457C19.1733 13.1314 19.4476 13.2419 19.6686 13.4629C19.8895 13.6838 20 13.9581 20 14.2857V18.8457C20 19.1733 19.8895 19.4476 19.6686 19.6686C19.4476 19.8895 19.1733 20 18.8457 20H16.8686ZM9.01143 20C8.68381 20 8.40952 19.8895 8.18857 19.6686C7.96762 19.4476 7.85714 19.1733 7.85714 18.8457V1.15429C7.85714 0.827625 7.96762 0.553339 8.18857 0.331434C8.40952 0.10953 8.68381 -0.000946276 9.01143 6.10501e-06H10.9886C11.3162 6.10501e-06 11.5905 0.110482 11.8114 0.331434C12.0324 0.552387 12.1429 0.826673 12.1429 1.15429V18.8457C12.1429 19.1733 12.0324 19.4476 11.8114 19.6686C11.5905 19.8895 11.3162 20 10.9886 20H9.01143ZM1.15429 20C0.826667 20 0.552381 19.8895 0.331428 19.6686C0.110476 19.4476 0 19.1733 0 18.8457V8.03572C0 7.69477 0.110476 7.41524 0.331428 7.19715C0.552381 6.97905 0.826667 6.86953 1.15429 6.86858H3.13143C3.4581 6.86858 3.73238 6.97905 3.95429 7.2C4.17619 7.42096 4.28667 7.69524 4.28571 8.02286V18.8329C4.28571 19.1738 4.17524 19.4533 3.95429 19.6714C3.73333 19.8895 3.45905 19.999 3.13143 20H1.15429Z" fill="#5E5E5E"/>
</svg>
